<svg xmlns="http://www.w3.org/2000/svg" viewBox="0 0 420 420"><path d="M341.48,191.73l-2.9-5c.13-36.21-16.72-51-36.29-62.23,5.94-1.55,12.08-2.84,13.76-10.33,10.2-2.58,12.33-7.29,13.36-12.33C332.06,100,341,95,340.06,86.44c5-3.43,7.75-7.88,6.39-14.14,5.36-5.88,6.78-10.72,4.52-15.17,6.46-8,3.62-12.14.84-16.34,4.84-8.78.58-18.14-12.91-16.59-5.36-7.87-17-6.07-18.85-6.07-2-2.51-4.71-4.71-12.91-3.68-5.3-4.77-11.3-3.93-17.43-1.61-7.3-5.68-12.14-1.1-17.63.58-9-2.77-11.1,1.1-15.43,2.71-9.62-2-12.59,2.39-17.17,7l-.32-.13a5.75,5.75,0,0,0-5,.06c-14.52,8.46-21.75,25.63-24.27,34.41-2.58-8.84-9.75-26-24.28-34.41l-.25-.13a5.76,5.76,0,0,0-5,.2l-.06.06c-4.65-4.58-7.56-9-17.18-7-4.32-1.62-6.32-5.49-15.17-2.65-3.61-1.1-5.74-3.61-9.68-3.49L137,10c-2.06.06-4.26,1-6.78,2.91-6.13-2.33-12.07-3.17-17.43,1.61-8.2-1-10.91,1.1-12.91,3.68C98,18.13,86.35,16.33,81,24.2,67.5,22.65,63.24,32,68.08,40.79c-2.78,4.2-5.62,8.33.84,16.34-2.26,4.45-.84,9.29,4.52,15.17C72,78.56,74.79,83,79.83,86.44c-.9,8.58,8,13.55,10.65,15.36,1,5,3.16,9.68,13.36,12.33,1.68,7.43,7.82,8.72,13.76,10.33-19.63,11.23-36.42,26-36.29,62.23l-2.84,5C56,205.22,35.8,248.48,67.37,283.66c2.07,11,5.55,18.92,8.59,27.7,4.58,35.24,34.73,51.77,42.67,53.71,11.62,8.71,24,17,40.8,22.79,15.82,16.07,32.92,22.2,50.16,22.14h.77c17.24,0,34.35-6.13,50.17-22.14,16.78-5.81,29.18-14.08,40.8-22.79,7.94-1.94,38-18.47,42.67-53.71,3.1-8.78,6.52-16.66,8.59-27.7C384.22,248.48,364,205.22,341.48,191.73Zm-105.34-43a28.95,28.95,0,1,1-28.95-28.95A28.92,28.92,0,0,1,236.14,148.7Zm-105.7-27.34c2.46-1.1,4.52-2.45,5.23-4.52-3-2.13-13.68-.19-21.11-4.32,2.84-.58,4.2-1.16,5.55-3.23-7-2.2-14.59-4.13-19-7.75,2.39,0,4.65.52,7.81-1.61-6.33-3.42-13-6.07-18.27-11.17,3.23-.06,6.78,0,7.81-1.23A71.57,71.57,0,0,1,83.77,75.85c4.58.52,6.45.06,7.61-.71C87,70.75,81.51,67,78.86,61.58c3.36,1.16,6.46,1.62,8.72-.13-1.49-3.29-7.82-5.23-11.5-12.91,3.56.32,7.36.78,8.07,0-1.67-6.65-4.51-10.39-7.29-14.27,7.62-.13,19.17,0,18.66-.58L90.8,28.92c7.43-2,15,.32,20.6,2,2.45-1.94-.07-4.39-3.1-6.85a75,75,0,0,1,17.24,4.26c2.77-2.45-1.81-4.9-4-7.36,9.82,1.81,13.95,4.39,18.08,7,3-2.84.19-5.23-1.87-7.69,7.36,2.72,11.17,6.14,15.17,9.62,1.35-1.8,3.42-3.09.9-7.48a37.68,37.68,0,0,1,12.07,10.39c3.23-2,1.94-4.84,1.94-7.36,5.42,4.39,8.91,9,13.11,13.56.84-.58,1.61-2.72,2.26-5.94,13,12.39,31.31,43.64,4.71,56-22.53-18.46-49.58-31.82-79.6-41.83,38.54,19.56,60.94,35.38,73.21,48.87C175.25,120.91,142.45,122.07,130.44,121.36Zm122,243.71H167.3V330.6h18.91V230.24h-1.7a17.21,17.21,0,1,1,0-34.42h49.07V330.6H252.4Zm37.89-243.71c-12,.71-44.81-.45-51.07-25.24,12.27-13.49,34.67-29.31,73.21-48.87-29.95,10-57,23.37-79.6,41.9-26.6-12.4-8.26-43.64,4.71-56,.65,3.23,1.42,5.36,2.26,5.94,4.2-4.58,7.69-9.17,13.11-13.56,0,2.52-1.29,5.36,1.93,7.36a38.08,38.08,0,0,1,12.08-10.39c-2.52,4.39-.45,5.68.9,7.49,4-3.49,7.81-6.91,15.17-9.62-2.06,2.45-4.84,4.84-1.87,7.68,4.13-2.58,8.26-5.16,18.08-7-2.2,2.45-6.78,4.91-4,7.36a75,75,0,0,1,17.24-4.26c-3,2.45-5.55,4.9-3.1,6.84,5.49-1.68,13.17-4,20.6-2l-4.72,4.78c-.51.58,11,.45,18.66.58-2.78,3.87-5.62,7.62-7.29,14.27.71.77,4.51.32,8.06,0-3.67,7.68-10,9.61-11.49,12.91,2.26,1.74,5.36,1.29,8.72.13-2.65,5.42-8.14,9.16-12.53,13.55,1.17.78,3,1.23,7.62.71A71.6,71.6,0,0,1,322.31,87.6c1,1.22,4.58,1.16,7.81,1.22-5.23,5.11-11.94,7.75-18.27,11.11,3.16,2.13,5.42,1.61,7.81,1.61-4.45,3.62-12,5.55-19,7.75,1.35,2.07,2.71,2.65,5.55,3.23-7.43,4.13-18.08,2.19-21.11,4.32C285.77,118.91,287.83,120.26,290.29,121.36Z"/></svg>