<?xml version="1.0" standalone="no"?>
<!DOCTYPE svg PUBLIC "-//W3C//DTD SVG 20010904//EN"
 "http://www.w3.org/TR/2001/REC-SVG-20010904/DTD/svg10.dtd">
<svg version="1.0" xmlns="http://www.w3.org/2000/svg"
 width="512.000000pt" height="512.000000pt" viewBox="0 0 512.000000 512.000000"
 preserveAspectRatio="xMidYMid meet">

<g transform="translate(0.000000,512.000000) scale(0.100000,-0.100000)"
fill="#000000" stroke="none">
<path d="M2409 4540 c-839 -64 -1557 -662 -1769 -1475 -83 -320 -85 -676 -4
-993 209 -828 937 -1435 1788 -1491 483 -32 952 108 1339 401 105 79 296 270
375 375 591 782 531 1867 -142 2571 -415 433 -994 657 -1587 612z m266 -400
c217 -18 405 -69 585 -159 318 -159 559 -400 720 -719 219 -437 219 -967 0
-1404 -161 -319 -399 -557 -718 -718 -437 -219 -967 -219 -1404 0 -789 397
-1107 1340 -716 2125 247 496 740 832 1283 874 55 5 107 9 115 9 8 1 69 -3
135 -8z"/>
<path d="M2426 3655 c-184 -51 -333 -197 -391 -385 -13 -41 -19 -106 -22 -252
l-6 -198 -88 0 c-82 0 -90 -2 -104 -24 -14 -21 -16 -82 -13 -523 3 -443 5
-502 20 -535 29 -65 68 -107 126 -135 l57 -28 565 0 c625 0 596 -3 675 66 21
19 49 56 61 84 l24 50 0 512 c0 593 14 533 -123 533 l-85 0 -4 213 c-4 194 -6
217 -27 272 -90 230 -287 366 -524 364 -51 0 -114 -7 -141 -14z m259 -246 c36
-13 73 -38 105 -69 78 -79 90 -124 90 -340 l0 -180 -316 0 -316 0 4 183 c4
197 12 233 74 314 77 101 230 140 359 92z m-56 -957 c82 -44 93 -152 22 -216
-19 -17 -21 -30 -21 -136 0 -77 -4 -120 -12 -128 -17 -17 -84 -15 -102 4 -13
12 -16 39 -16 131 0 114 0 116 -30 150 -93 105 35 261 159 195z"/>
</g>
</svg>
